<svg width="25" height="25" viewBox="0 0 25 25" fill="none" xmlns="http://www.w3.org/2000/svg">
<path d="M25 12.5C25 19.4167 19.4167 25 12.5 25C5.58333 25 0 19.4167 0 12.5C0 5.58333 5.58333 0 12.5 0C19.4167 0 25 5.58333 25 12.5Z" fill="#FFDD67"/>
<path d="M19.3328 4.54167C17.5828 4.70833 15.9578 5.625 14.9578 7.08333C14.8328 7.29167 14.0411 6.79167 14.2078 6.54167C15.3744 4.875 17.2078 3.79167 19.2494 3.625C19.5411 3.625 19.5828 4.54167 19.3328 4.54167ZM10.0411 7.08333C9.04111 5.625 7.41611 4.70833 5.66611 4.54167C5.41611 4.54167 5.45777 3.625 5.74944 3.625C7.79111 3.79167 9.62444 4.875 10.7911 6.54167C10.9578 6.79167 10.1661 7.29167 10.0411 7.08333Z" fill="#917524"/>
<path d="M8.00061 15.7917C10.9173 13.7917 14.1256 13.7917 17.0006 15.7917C17.3339 16.0417 17.6673 15.625 17.4173 15.25C16.5423 13.8333 14.7506 12.5417 12.5006 12.5417C10.2506 12.5417 8.45895 13.8333 7.58395 15.25C7.33395 15.625 7.66728 16.0417 8.00061 15.7917ZM14.1256 7.91667C15.8756 11.25 19.4173 11.25 21.1673 7.91667C21.2506 7.75 21.0423 7.66667 20.7506 7.5C19.0006 8.875 16.1256 8.75 14.5423 7.5C14.2923 7.70833 14.0423 7.75 14.1256 7.91667ZM3.83395 7.91667C5.58395 11.25 9.12561 11.25 10.8756 7.91667C10.9589 7.75 10.7506 7.66667 10.4589 7.5C8.70895 8.875 5.83395 8.75 4.25061 7.5C3.95895 7.70833 3.75061 7.75 3.83395 7.91667Z" fill="#664E27"/>
<path d="M24.8746 18.875C24.458 17.8333 23.083 17.2916 21.833 17.625C21.1663 17.7916 20.6663 18.1666 20.4163 18.625C17.1663 18 14.1663 12.2083 14.1663 12.2083C14.1663 12.2083 14.2496 16.9166 16.6246 19.6666C16.1246 19.5 15.583 19.5 14.9996 19.625C13.708 19.9583 13.0413 21.0833 13.458 22.0833C13.8746 23.0833 15.2496 23.6666 16.4996 23.3333C16.583 23.2916 16.6663 23.2916 16.7496 23.25C17.4163 24.5416 19.208 25.2083 20.9163 24.7916C22.708 24.3333 23.6663 22.7916 23.083 21.375C23.1663 21.375 23.2496 21.3333 23.333 21.3333C24.583 21.0416 25.2913 19.9166 24.8746 18.875ZM0.124624 18.875C0.54129 17.8333 1.91629 17.2916 3.16629 17.625C3.83296 17.7916 4.33296 18.1666 4.58296 18.625C7.83296 18 10.833 12.2083 10.833 12.2083C10.833 12.2083 10.7496 16.9166 8.37462 19.6666C8.87462 19.5 9.41629 19.5 9.99962 19.625C11.2913 19.9583 11.958 21.0833 11.5413 22.0833C11.1246 23.125 9.74962 23.6666 8.49962 23.3333C8.41629 23.2916 8.33296 23.2916 8.24962 23.25C7.58296 24.5416 5.79129 25.2083 4.08296 24.7916C2.29129 24.3333 1.33296 22.7916 1.91629 21.375C1.83296 21.375 1.74962 21.3333 1.66629 21.3333C0.41629 21.0416 -0.292043 19.9166 0.124624 18.875Z" fill="#D8D8D8"/>
<path d="M23.8757 17.8333C23.5007 16.75 22.2507 16.125 21.0423 16.5C20.459 16.6667 20.0007 17.0833 19.709 17.5833C16.709 16.9167 13.959 10.75 13.959 10.75C13.959 10.75 14.084 15.7917 16.2507 18.75C15.7923 18.5833 15.2923 18.5833 14.7923 18.7083C13.6257 19.0833 13.0007 20.25 13.3757 21.3333C13.7507 22.4167 15.0007 23.0417 16.209 22.6667C16.2923 22.625 16.3757 22.625 16.459 22.5833C17.084 23.9583 18.7507 24.7083 20.2923 24.2083C21.9173 23.7083 22.834 22.0833 22.2923 20.5417C22.3757 20.5417 22.459 20.5 22.5423 20.5C23.6257 20.125 24.2923 18.9583 23.8757 17.8333ZM1.12568 17.8333C1.50068 16.75 2.75068 16.125 3.95901 16.5C4.54234 16.6667 5.00068 17.0833 5.25068 17.5833C8.25068 16.9167 11.0007 10.75 11.0007 10.75C11.0007 10.75 10.9173 15.7917 8.75068 18.75C9.20901 18.5833 9.70901 18.5833 10.209 18.7083C11.3757 19.0833 12.0423 20.25 11.6257 21.3333C11.2507 22.4167 10.0007 23.0417 8.79234 22.6667C8.70901 22.625 8.62568 22.625 8.54234 22.5833C7.91734 23.9583 6.25068 24.7083 4.70901 24.2083C3.12568 23.75 2.25068 22.0833 2.79234 20.5417C2.70901 20.5417 2.62568 20.5 2.54234 20.5C1.37568 20.125 0.709011 18.9583 1.12568 17.8333Z" fill="white"/>
</svg>
