<svg width="350" height="350" viewBox="0 0 350 350" fill="none" xmlns="http://www.w3.org/2000/svg">
<g clip-path="url(#clip0_134_824)">
<path d="M280.03 344.914L274.373 344.914L271.682 317.57L280.032 317.57L280.03 344.914Z" fill="#FFB6B6"/>
<path d="M260.648 344.753C260.472 345.125 260.379 346.325 260.379 346.757C260.379 348.086 261.239 349.163 262.299 349.163H279.82C280.543 349.163 281.13 348.429 281.13 347.522V346.608C281.13 346.608 281.996 343.861 280.212 340.475C280.212 340.475 277.994 343.126 274.68 338.974L273.703 336.755L266.629 343.238L262.708 343.843C261.85 343.975 261.089 343.822 260.648 344.753Z" fill="#2F2E41"/>
<path d="M254.31 344.914L248.652 344.914L245.961 317.57L254.311 317.57L254.31 344.914Z" fill="#FFB6B6"/>
<path d="M234.927 344.753C234.751 345.125 234.658 346.325 234.658 346.757C234.658 348.086 235.518 349.163 236.578 349.163H254.099C254.822 349.163 255.409 348.429 255.409 347.522V346.608C255.409 346.608 256.276 343.861 254.491 340.475C254.491 340.475 252.273 343.126 248.959 338.974L247.982 336.755L240.908 343.238L236.987 343.843C236.129 343.975 235.369 343.822 234.927 344.753Z" fill="#2F2E41"/>
<path d="M289.111 174.2L249.74 175.515L245.727 187.355L240.816 264.315L245.016 332.067H257.276V268.122L266.539 228.795L270.213 330.093L282.87 332.067L288.061 262.342L292.786 195.906L289.111 174.2Z" fill="#2F2E41"/>
<path d="M275.124 86.0576L261.476 86.7153L259.901 94.6087C259.901 94.6087 243.103 100.529 244.153 108.422C245.203 116.315 250.452 151.178 250.452 151.178C250.452 151.178 244.678 173.542 248.352 176.173C252.027 178.804 289.893 176.173 289.893 176.173C289.893 176.173 292.973 166.306 291.398 164.991C289.823 163.675 296.122 100.529 295.072 99.2131C294.022 97.8976 276.699 91.3198 276.699 91.3198L275.124 86.0576Z" fill="#6C63FF"/>
<path d="M301.894 151.835L302.944 161.044L291.395 193.933L285.621 189.986L291.92 159.071L292.97 147.231L301.894 151.835Z" fill="#FFB6B6"/>
<path d="M290.871 99.8709C290.871 99.8709 296.645 96.582 300.844 108.422C305.044 120.262 303.994 145.915 303.994 145.915C303.994 145.915 305.569 147.889 304.519 149.204C303.469 150.52 301.474 147.424 303.469 151.607C304.519 153.809 307.669 153.151 304.519 153.809C301.369 154.466 302.473 152.628 303.469 155.124C303.994 156.44 306.094 156.44 303.994 157.098C301.894 157.755 291.329 156.626 291.329 156.626C291.329 156.626 287.721 154.466 289.821 153.151C291.92 151.835 292.97 151.576 291.92 151.048C290.871 150.52 288.246 150.52 289.821 148.546C291.395 146.573 292.445 146.573 291.395 146.573C290.346 146.573 289.164 143.403 289.164 143.403L290.871 99.8709Z" fill="#6C63FF"/>
<path d="M290.738 199.453C292.017 194.655 291.211 189.994 288.938 189.043C286.664 188.091 283.785 191.209 282.505 196.006C281.226 200.804 282.032 205.465 284.306 206.417C286.579 207.368 289.459 204.25 290.738 199.453Z" fill="#FFB6B6"/>
<path d="M228.768 148.72L224.592 156.411L198.373 170.963L196.229 163.172L217.507 145.646L224.649 137.783L228.768 148.72Z" fill="#FFB6B6"/>
<path d="M248.565 101.014C248.565 101.014 254.6 103.459 251.337 115.754C248.074 128.048 233.504 146.118 233.504 146.118C233.504 146.118 233.606 148.906 232.123 148.991C230.64 149.077 230.83 145.105 230.055 149.881C229.647 152.394 232.328 154.567 229.647 152.394C226.966 150.221 228.77 149.794 228.164 152.479C227.845 153.895 229.396 155.668 227.491 154.381C225.586 153.094 218.386 143.34 218.386 143.34C218.386 143.34 216.881 138.698 219.14 139.498C221.399 140.299 222.314 140.994 221.822 139.717C221.33 138.44 219.391 136.224 221.616 136.096C223.84 135.967 224.616 136.854 223.84 135.967C223.065 135.081 223.896 131.741 223.896 131.741L248.565 101.014Z" fill="#6C63FF"/>
<path d="M194.919 174.487C198.444 172.021 200.355 167.897 199.187 165.274C198.019 162.652 194.214 162.524 190.689 164.989C187.164 167.455 185.254 171.579 186.422 174.202C187.59 176.824 191.394 176.952 194.919 174.487Z" fill="#FFB6B6"/>
<path d="M268.894 82.8423C275.856 82.8423 281.501 75.7698 281.501 67.0454C281.501 58.3211 275.856 51.2486 268.894 51.2486C261.931 51.2486 256.287 58.3211 256.287 67.0454C256.287 75.7698 261.931 82.8423 268.894 82.8423Z" fill="#FFB6B6"/>
<path d="M258.825 54.3395C259.466 52.0598 261.246 50.6768 263.175 50.7307C263.257 50.7329 263.338 50.732 263.419 50.7278C264.39 50.678 265.323 50.2624 266.275 50.0185C268.05 49.564 269.922 49.7161 271.635 50.4543C272.167 50.6837 272.701 50.9722 273.264 50.9723C273.827 50.9724 274.44 50.5855 274.578 49.9012C274.61 50.5207 274.643 51.1402 274.675 51.7597C274.858 51.2583 275.042 50.7569 275.225 50.2554L275.592 52.2551L276.768 50.5839C276.663 51.3205 277.005 52.0629 277.469 52.5339C277.933 53.0049 278.507 53.2654 279.056 53.5588C281.427 54.8253 283.653 57.0676 284.337 60.1819C284.768 62.1495 284.543 64.2378 284.314 66.2581C284.112 68.0442 283.892 69.892 283.117 71.4124C282.62 72.3871 281.904 73.2072 281.602 74.2998C281.32 75.3182 281.427 76.4842 281.026 77.4378C280.623 78.3957 279.792 78.9376 278.978 79.3015C278.164 79.6656 277.299 79.9231 276.598 80.5564C275.898 81.1899 275.084 83.0145 273.558 82.9163L273.065 81.7563C272.558 81.2387 274.434 81.649 274.453 80.8301C274.473 80.0111 272.196 79.5051 272.519 78.7925C273.014 77.6997 273.683 76.7487 274.241 75.7044C274.893 74.4831 275.406 73.0561 275.181 71.5655C275.093 70.9856 274.877 70.4379 274.547 70.0167C273.596 68.8024 272.536 69.3361 271.505 69.5098C270.795 69.6297 269.946 69.4913 269.578 68.7213C269.146 67.8204 269.627 66.6743 269.568 65.6262C269.506 64.5156 268.834 63.605 268.104 62.9719C267.373 62.3387 266.543 61.8775 265.886 61.1286C265.228 60.3797 265.332 60.7681 265.619 59.7144C260.731 64.3078 261.453 56.3766 258.172 57.368C258.328 56.3398 258.547 55.3267 258.825 54.3395Z" fill="#2F2E41"/>
<path d="M198.872 336.792C197.587 337.633 196.302 338.77 195.328 340.784C195.145 341.163 194.982 341.576 194.828 342.004C195.26 338.154 196.121 334.532 197.362 331.514C197.82 330.401 197.051 328.77 196.59 329.89C194.623 331.171 193.794 334.166 193.477 337.712C193.086 336.442 192.605 335.296 192.044 334.342C191.815 333.953 191.496 333.871 191.272 334.342C191.08 334.745 191.041 335.574 191.272 335.966C190.425 341.539 192.611 343.265 193.365 346.04C193.382 346.655 193.4 347.262 193.417 347.855C193.434 348.444 193.612 348.794 193.819 348.914C193.92 349.242 194.101 349.468 194.286 349.468C194.595 349.468 194.815 348.941 194.832 348.319C194.892 346.039 195.079 342.078 196.159 342.288C198.462 342.736 198.568 340.402 199.162 339.007C199.629 337.909 199.545 336.351 198.872 336.792Z" fill="#E6E6E6"/>
<path d="M314.647 336.792C315.932 337.633 317.217 338.77 318.19 340.784C318.374 341.163 318.537 341.576 318.69 342.004C318.259 338.154 317.397 334.532 316.156 331.514C315.699 330.401 316.468 328.77 316.929 329.89C318.896 331.171 319.725 334.166 320.042 337.712C320.433 336.442 320.914 335.296 321.475 334.342C321.704 333.953 322.023 333.871 322.247 334.342C322.439 334.745 322.477 335.574 322.247 335.966C323.093 341.539 320.908 343.265 320.154 346.04C320.137 346.655 320.119 347.262 320.102 347.855C320.085 348.444 319.907 348.794 319.7 348.914C319.599 349.242 319.418 349.468 319.233 349.468C318.924 349.468 318.704 348.941 318.687 348.319C318.626 346.039 318.44 342.078 317.359 342.288C315.057 342.736 314.951 340.402 314.357 339.007C313.89 337.909 313.973 336.351 314.647 336.792Z" fill="#E6E6E6"/>
<path d="M102.148 349.089C102.148 349.594 102.472 350 102.876 350H349.273C349.676 350 350 349.594 350 349.089C350 348.584 349.676 348.178 349.273 348.178H102.876C102.472 348.178 102.148 348.584 102.148 349.089Z" fill="#CCCCCC"/>
<path d="M133.137 350H25.3476C12.2045 350 1.51172 336.601 1.51172 320.132V29.8674C1.51171 13.3985 12.2045 0 25.3476 0H133.137C146.28 0 156.973 13.3985 156.973 29.8674V320.132C156.973 336.601 146.28 350 133.137 350Z" fill="#3F3D56"/>
<path d="M156.973 106.769C156.417 106.769 155.965 107.336 155.965 108.032V148.466C155.965 149.163 156.417 149.729 156.973 149.729C157.529 149.729 157.982 149.163 157.982 148.466V108.032C157.982 107.336 157.529 106.769 156.973 106.769Z" fill="#3F3D56"/>
<path d="M154.705 29.8676V320.127C154.705 334.462 145.801 346.188 134.542 347.098H134.537C134.371 347.11 134.205 347.123 134.033 347.129C133.736 347.148 133.438 347.154 133.136 347.154C133.136 347.154 132.027 347.053 130 346.864C127.953 346.674 124.973 346.39 121.257 346.017C120.143 345.91 118.968 345.79 117.728 345.663C115.257 345.411 112.545 345.133 109.636 344.817C108.476 344.697 107.276 344.564 106.051 344.431C99.7889 343.755 92.7756 342.966 85.3792 342.069C84.1288 341.923 82.8683 341.772 81.5978 341.614C81.265 341.57 80.9272 341.532 80.5894 341.487C75.3156 340.837 3.78125 323.514 3.78125 320.127V29.8676C3.78124 14.939 13.4364 2.84059 25.3504 2.84059H38.2273C40.2844 2.84059 41.9381 4.84961 42.1146 7.42092C42.1297 7.59151 42.1448 7.76205 42.17 7.93264C42.5431 10.5166 44.4338 12.3171 46.5312 12.3171H111.955C114.052 12.3171 115.943 10.5166 116.316 7.93264C116.341 7.76205 116.356 7.59151 116.372 7.42092C116.548 4.84961 118.202 2.84059 120.259 2.84059H133.136C145.05 2.84059 154.705 14.939 154.705 29.8676Z" fill="white"/>
<path d="M1.00837 76.4441C0.452238 76.4441 0 77.0107 0 77.7076V87.8159C0 88.5127 0.452244 89.0794 1.00837 89.0794C1.5645 89.0794 2.01674 88.5127 2.01674 87.8159V77.7076C2.01674 77.0107 1.5645 76.4441 1.00837 76.4441Z" fill="#3F3D56"/>
<path d="M1.00837 106.769C0.452238 106.769 0 107.336 0 108.032V127.617C0 128.314 0.452244 128.881 1.00837 128.881C1.5645 128.881 2.01674 128.314 2.01674 127.617V108.032C2.01674 107.336 1.5645 106.769 1.00837 106.769Z" fill="#3F3D56"/>
<path d="M1.00837 134.567C0.452238 134.567 0 135.133 0 135.83V155.415C0 156.112 0.452244 156.679 1.00837 156.679C1.5645 156.679 2.01674 156.112 2.01674 155.415V135.83C2.01674 135.133 1.5645 134.567 1.00837 134.567Z" fill="#3F3D56"/>
<path d="M37.8761 7.26544H18.5919C18.4872 7.26544 18.4023 7.37177 18.4023 7.50293V10.1868C18.4023 10.318 18.4872 10.4243 18.5919 10.4243H37.8761C37.9808 10.4243 38.0656 10.318 38.0656 10.1868V7.50293C38.0656 7.37177 37.9808 7.26544 37.8761 7.26544Z" fill="#E6E6E6"/>
<path d="M123.444 10.4243C124.558 10.4243 125.461 9.29287 125.461 7.89721C125.461 6.50154 124.558 5.37013 123.444 5.37013C122.331 5.37013 121.428 6.50154 121.428 7.89721C121.428 9.29287 122.331 10.4243 123.444 10.4243Z" fill="#E6E6E6"/>
<path d="M128.991 10.4243C130.105 10.4243 131.008 9.29287 131.008 7.89721C131.008 6.50154 130.105 5.37013 128.991 5.37013C127.878 5.37013 126.975 6.50154 126.975 7.89721C126.975 9.29287 127.878 10.4243 128.991 10.4243Z" fill="#E6E6E6"/>
<path d="M134.538 10.4243C135.652 10.4243 136.555 9.29287 136.555 7.89721C136.555 6.50154 135.652 5.37013 134.538 5.37013C133.424 5.37013 132.521 6.50154 132.521 7.89721C132.521 9.29287 133.424 10.4243 134.538 10.4243Z" fill="#E6E6E6"/>
<path d="M149.251 333.463L153.905 331.995L150.727 305.073L143.859 307.239L149.251 333.463Z" fill="#FFB6B6"/>
<path d="M167.786 340.043C168.003 341.021 167.624 342.007 166.94 342.245L157.763 345.431C157.763 345.431 155.854 341.195 151.739 340.516L152.924 347.111L148.189 348.755L146.45 338.093C146.45 338.093 143.946 332.936 145.943 329.161C147.94 325.387 145.898 326.525 145.898 326.525L145.501 319.691L152.888 318.261L155.188 328.407L160.891 337.291L166.68 338.675C167.195 338.799 167.63 339.336 167.786 340.043Z" fill="#2F2E41"/>
<path d="M104.68 328.785L109.166 330.919L118.859 306.565L112.239 303.415L104.68 328.785Z" fill="#FFB6B6"/>
<path d="M116.872 347.475C116.603 348.432 115.842 348.969 115.173 348.673L106.192 344.703C106.192 344.703 106.562 339.861 103.498 336.353L101.457 342.61L96.8242 340.562L100.268 330.572C100.268 330.572 100.571 324.547 103.933 322.885C107.295 321.223 105.101 320.691 105.101 320.691L107.897 314.802L114.607 318.928L111.858 328.898L112.475 340.273L116.59 345.56C116.956 346.031 117.067 346.783 116.872 347.475Z" fill="#2F2E41"/>
<path d="M124.161 88.0073H100.35C100.385 86.6074 100.147 85.2074 99.658 83.9533C99.6463 85.346 99.3961 86.7387 98.9364 88.0073H97.8541C96.2016 88.0073 94.8574 86.323 94.8574 84.2523V64.8648C94.8574 55.3716 100.81 47.548 108.375 47.096C108.602 47.0814 108.823 47.0741 109.05 47.0741C115.212 47.0741 120.716 52.0832 122.59 59.5057C125.342 57.9162 126.989 66.9501 128.083 81.2994C128.915 84.6242 126.937 88.0073 124.161 88.0073Z" fill="#2F2E41"/>
<path d="M170.885 198.85C172.065 202.357 171.579 205.962 169.798 206.903C168.017 207.845 165.617 205.765 164.436 202.259C163.92 200.724 163.723 199.17 163.813 197.829L158.961 182.893L164.603 180.189L168.788 195.2C169.618 196.054 170.368 197.316 170.885 198.85Z" fill="#FFB6B6"/>
<path d="M118.715 81.4452L107.334 84.4285L109.079 90.9906L105.588 141.18L111.407 157.341L146.902 153.696L138.173 131.822C138.173 131.822 141.665 113.594 137.01 109.948C132.355 106.302 124.79 88.0741 124.79 88.0741L118.715 81.4452Z" fill="#6C63FF"/>
<path d="M108.105 87.3306L98.0224 92.4489L101.514 156.612L93.9492 212.026L118.388 217.13C118.388 217.13 115.479 94.6362 113.733 92.4489C111.988 90.2615 108.105 87.3306 108.105 87.3306Z" fill="#2F2E41"/>
<path d="M127.852 95.335C127.852 95.335 134.412 90.1338 137.956 93.9848C141.501 97.8358 168.79 190.926 168.79 190.926L161.429 194.934L144.549 150.583L127.852 95.335Z" fill="#2F2E41"/>
<path d="M146.645 252.179L153.302 316.291L143.992 317.02C143.992 317.02 139.151 300.469 133.629 280.972C132.453 276.838 131.249 272.573 130.056 268.3C128.764 263.663 127.478 259.025 126.256 254.549C123.236 243.51 120.589 233.462 119.076 226.9C118.814 225.748 118.581 224.705 118.389 223.787C114.316 204.188 111.988 152.966 111.988 152.966L145.738 149.321L146.098 149.882L153.302 161.162L152.965 163.546L143.992 226.608L146.645 252.179Z" fill="#2F2E41"/>
<path d="M143.991 226.608L146.645 252.179L134.71 278.508L133.628 280.972L117.195 318.391L109.078 312.624C109.078 312.624 119.639 282.212 126.255 254.549C126.989 251.508 127.669 248.497 128.28 245.566C130.078 236.984 127.134 221.322 128.286 217.006C132.179 202.438 144.864 173.295 150.753 160.09L152.964 163.546L143.991 226.608Z" fill="#2F2E41"/>
<path d="M124.643 87.5195L136.428 93.178L167.268 206.193L148.647 209.838L139.919 144.217L124.643 87.5195Z" fill="#2F2E41"/>
<path d="M95.177 209.51C94.8771 213.297 93.0748 216.173 91.1516 215.934C89.2284 215.695 87.9126 212.431 88.2125 208.644C88.3438 206.986 88.763 205.503 89.3542 204.379L90.7859 188.353L96.7735 189.355L94.7266 205.048C95.13 206.295 95.3083 207.852 95.177 209.51Z" fill="#FFB6B6"/>
<path d="M102.096 92.4489C102.096 92.4489 94.5317 90.2615 92.2042 95.3654C89.8767 100.469 88.7129 199.631 88.7129 199.631L96.7172 200.36L100.932 151.508L102.096 92.4489Z" fill="#2F2E41"/>
<path d="M111.75 79.6769C118.431 79.6769 123.846 72.891 123.846 64.5202C123.846 56.1494 118.431 49.3635 111.75 49.3635C105.07 49.3635 99.6543 56.1494 99.6543 64.5202C99.6543 72.891 105.07 79.6769 111.75 79.6769Z" fill="#FFB6B6"/>
<path d="M126.934 63.217C126.934 63.217 121.042 61.0296 117.514 63.217C112.611 66.2568 100.094 63.217 100.094 63.217V56.3653C100.094 52.3653 102.471 48.9912 105.638 48.4951L114.671 47.0803C121.762 45.9697 128.024 52.8973 128.024 61.8509C128.024 62.6054 127.536 63.217 126.934 63.217Z" fill="#2F2E41"/>
<path d="M114.061 88.0073H100.351C100.386 86.6074 100.148 85.2074 99.6589 83.9533C99.6472 85.346 99.397 86.7387 98.9373 88.0073H98.3496V57.384H108.824L114.061 88.0073Z" fill="#2F2E41"/>
</g>
<defs>
<clipPath id="clip0_134_824">
<rect width="350" height="350" fill="white"/>
</clipPath>
</defs>
</svg>
